/* XPM */
static char *ts-logo-128[] = {
/* columns rows colors chars-per-pixel */
"128 128 27 1",
"  c #000000",
". c #010101",
"X c #020202",
"o c #030303",
"O c #040404",
"+ c #050505",
"@ c #060606",
"# c #070707",
"$ c #080808",
"% c #090909",
"& c #0A0A0A",
"* c #0B0B0B",
"= c #0C0C0C",
"- c #0D0D0D",
"; c #0E0E0E",
": c #101010",
"> c #111111",
", c #121212",
"< c #131313",
"1 c #171717",
"2 c #1B1B1B",
"3 c #1F1F1F",
"4 c #232323",
"5 c #2F2F2F",
"6 c #393939",
"7 c #6A6A6A",
"8 c None",
/* pixels */
"88888888888888888888888888888888888888888888888888888888888888888888888888888888888888888888888888888888888888888888888888888888",
"88888888888888888888888888888888888888888888888888888888888888888888888888888888888888888888888888888888888888888888888888888888",
"88888888888888888888888888888888888888888888888888888888888888888888888888888888888888888888888888888888888888888888888888888888",
"88888888888888888888888888888888888888888888888888888888888888888888888888888888888888888888888888888888888888888888888888888888",
"88888888888888888888888888888888888888888888888888888888888888888888888888888888888888888888888888888888888888888888888888888888",
"88888888888888888888888888888888888888888888888888888888888888888888888888888888888888888888888888888888888888888888888888888888",
"88888888888888888888888888888888888888888888888888888888888888888888888888888888888888888888888888888888888888888888888888888888",
"88888888888888888888888888888888888888888888888888888888888888888888888888888888888888888888888888888888888888888888888888888888",
"88888888888888888888888888888888888888888888888888888888888888888888888888888888888888888888888888888888888888888888888888888888",
"88888888888888888888888888888888888888888888888888888888888888888888888888888888888888888888888888888888888888888888888888888888",
"88888888888888888888888888888888888888888888888888888888888888888888888888888888888888888888888888888888888888888888888888888888",
"88888888888888888888888888888888888888888888888888888888888888888888888888888888888888888888888888888888888888888888888888888888",
"88888888888888888888888888888888888888888888888888888888888888888888888888888888888888888888888888888888888888888888888888888888",
"888888  888888888888888888888888888888888888888888888888888888888888888888888888888888888888888888888888888888888888  8888888888",
"888888                                                                                                                8888888888",
"888888                                                                                                                8888888888",
"888888                                                                                                                8888888888",
"888888                                                                                                                8888888888",
"888888                                                                                                                8888888888",
"888888                                                                                                                8888888888",
"888888                                                                                                                8888888888",
"888888                                                                                                                8888888888",
"888888                                                                                                                8888888888",
"888888                                                                                                                8888888888",
"888888                                                                                                                8888888888",
"888888                                                                                                                8888888888",
"888888                                                                                                                8888888888",
"888888                                                                                                                8888888888",
"888888                                                                                                                8888888888",
"888888                                                                                                                8888888888",
"888888                                                                                                                8888888888",
"888888                                                                                                                8888888888",
"888888                                                                                                                8888888888",
"888888                                                                                                                8888888888",
"888888                                                                                                                8888888888",
"888888                                                                                                                8888888888",
"888888                                                                                                                8888888888",
"888888                                                                                                                8888888888",
"888888                                                                                                                8888888888",
"888888                                                                                                                8888888888",
"888888                                                                                                                8888888888",
"888888                                                                                                                8888888888",
"888888                                                                                     ;888888888888888888888888888888888888",
"88888888888888888888888                                                                   88888888888888888888888888888888888888",
"88888888888888888888888                                                                  888888888888888888888888888888888888888",
"88888888888888888888888                                                                 O888888888888888888888888888888888888888",
"88888888888888888888888                                O                                 O88888888888888888888888888888888888888",
"88888888888888888888888                                                                   88888888888888888888888888888888888888",
"88888888888888888888888                                                                     888888888888888888888888888888888888",
"88888888888888888888888                                 %                                    88888888888888888888888888888888888",
"88888888888888888888888                                                                       ;888888888888888888888888888888888",
"88888888888888888888888                                 8                                      %88888888888888888888888888888888",
"88888888888888888888888                                 8                                        8888888888888888888888888888888",
"88888888888888888888888                                 88                                        888888888888888888888888888888",
"88888888888888888888888                                 88;                                        %8888888888888888888888888888",
"88888888888888888888888                                 888                                          888888888888888888888888888",
"88888888888888888888888                                 8888                                         O88888888888888888888888888",
"88888888888888888888888                                 8888%                                           888888888888888888888888",
"88888888888888888888888                                 88888%                                         O%88888888888888888888888",
"88888888888888888888888                                 888888                                            8888888888888888888888",
"88888888888888888888888                                 8888888                                           O 88888888888888888888",
"88888888888888888888888                                 88888888%                                           88888888888888888888",
"88888888888888888888888                                 888888888%O                                         O%888888888888888888",
"88888888888888888888888                                 8888888888O                                            88888888888888888",
"88888888888888888888888                                 88888888888                                             8888888888888888",
"88888888888888888888888                                 888888888888                                            ;888888888888888",
"88888888888888888888888                                 8888888888888OO                                         O188888888888888",
"88888888888888888888888                                 88888888888888                                            88888888888888",
"88888888888888888888888                                 888888888888888%                                          %8888888888888",
"88888888888888888888888                                 88888888888888888                                           888888888888",
"88888888888888888888888                                 888888888888888888O                                          88888888888",
"88888888888888888888888                                 8888888888888888888O                                         88888888888",
"88888888888888888888888                                 88888888888888888888>                                        O8888888888",
"88888888888888888888888                                 888888888888888888888 %                                      O5888888888",
"88888888888888888888888                                 88888888888888888888888  O                                    O888888888",
"88888888888888888888888                                 888888888888888888888888> O                                    888888888",
"88888888888888888888888                                 88888888888888888888888888O                                    O88888888",
"88888888888888888888888                                 888888888888888888888888888                                    O88888888",
"88888888888888888888888                                 8888888888888888888888888888                                    88888888",
"88888888888888888888888                                 88888888888888888888888888888                                   O8888888",
"88888888888888888888888                                 88888888888888888888888888888                                    8888888",
"88888888888888888888888                                 88888888888888888888888888888                                    8888888",
"88888888888888888888888                                 888888888888888888888888888 O                                    8888888",
"88888888888888888888888                                 8888888888888888888888882;                                       8888888",
"88888888888888888888888                                                         O                                        8888888",
"88888888888888888888888                                                                                                  8888888",
"88888888888888888888888                                                                                                  8888888",
"88888888888888888888888                                                                                                  8888888",
"88888888888888888888888                                                                                                  8888888",
"88888888888888888888888                                                                                                  8888888",
"88888888888888888888888                                                                                                  8888888",
"88888888888888888888888                                                                                                  8888888",
"88888888888888888888888                                                                                                 O8888888",
"88888888888888888888888                                                                                                 O8888888",
"88888888888888888888888                                                                                                 88888888",
"88888888888888888888888                                                                                                 88888888",
"88888888888888888888888                                                                                                 88888888",
"88888888888888888888888                                                                                               O888888888",
"88888888888888888888888                                                                                               ;888888888",
"88888888888888888888888                                                                                               8888888888",
"88888888888888888888888                                                                                              ;8888888888",
"88888888888888888888888                                                                                             O88888888888",
"88888888888888888888888                                                                                             888888888888",
"88888888888888888888888                                                                                           %8888888888888",
"88888888888888888888888                                                                                          O>8888888888888",
"88888888888888888888888                                                                                          888888888888888",
"88888888888888888888888                                                                                         8888888888888888",
"88888888888888888888888                                                                                      O;88888888888888888",
"88888888888888888888888                                                                                     O8888888888888888888",
"88888888888888888888888                                                                                     88888888888888888888",
"88888888888888888888888                                                                                   8888888888888888888888",
"88888888888888888888888                                                                               O1888888888888888888888888",
"88888888888888888888888                                                                            O8888888888888888888888888888",
"88888888888888888888888                                                                         O8888888888888888888888888888888",
"88888888888888888888888888888888888888888888888888888888888888888888888888888888888888888888888888888888888888888888888888888888",
"88888888888888888888888888888888888888888888888888888888888888888888888888888888888888888888888888888888888888888888888888888888",
"88888888888888888888888888888888888888888888888888888888888888888888888888888888888888888888888888888888888888888888888888888888",
"88888888888888888888888888888888888888888888888888888888888888888888888888888888888888888888888888888888888888888888888888888888",
"88888888888888888888888888888888888888888888888888888888888888888888888888888888888888888888888888888888888888888888888888888888",
"88888888888888888888888888888888888888888888888888888888888888888888888888888888888888888888888888888888888888888888888888888888",
"88888888888888888888888888888888888888888888888888888888888888888888888888888888888888888888888888888888888888888888888888888888",
"88888888888888888888888888888888888888888888888888888888888888888888888888888888888888888888888888888888888888888888888888888888",
"88888888888888888888888888888888888888888888888888888888888888888888888888888888888888888888888888888888888888888888888888888888",
"88888888888888888888888888888888888888888888888888888888888888888888888888888888888888888888888888888888888888888888888888888888",
"88888888888888888888888888888888888888888888888888888888888888888888888888888888888888888888888888888888888888888888888888888888",
"88888888888888888888888888888888888888888888888888888888888888888888888888888888888888888888888888888888888888888888888888888888",
"88888888888888888888888888888888888888888888888888888888888888888888888888888888888888888888888888888888888888888888888888888888",
"88888888888888888888888888888888888888888888888888888888888888888888888888888888888888888888888888888888888888888888888888888888"
};
